name ./resultDataOpenSim/trcMotMarkerGrf/sub10/grf-13-06.mot
datacolumns 19
datarows 20
range 0.51200000 0.58800000
endheader

                time	     ground_force_vx	     ground_force_vy	     ground_force_vz	     ground_force_px	     ground_force_py	     ground_force_pz	   l_ground_force_vx	   l_ground_force_vy	   l_ground_force_vz	   l_ground_force_px	   l_ground_force_py	   l_ground_force_pz	     ground_torque_x	     ground_torque_y	     ground_torque_z	   l_ground_torque_x	   l_ground_torque_y	   l_ground_torque_z	
          0.51200000	         46.78353933	        523.35181155	        -23.87753670	         -0.76426092	          0.00000000	          0.00261676	          0.00000000	          0.00000000	          0.00000000	          0.00000000	          0.00000000	          0.00000000	          0.00000000	          3.15912429	          0.00000000	          0.00000000	          0.00000000	          0.00000000	
          0.51600000	         48.45504911	        533.51802516	        -26.10055463	         -0.76245289	          0.00000000	          0.00294506	          0.00000000	          0.00000000	          0.00000000	          0.00000000	          0.00000000	          0.00000000	          0.00000000	          3.21918808	          0.00000000	          0.00000000	          0.00000000	          0.00000000	
          0.52000000	         50.33448911	        544.11172116	        -28.82173308	         -0.76056684	          0.00000000	          0.00327838	          0.00000000	          0.00000000	          0.00000000	          0.00000000	          0.00000000	          0.00000000	          0.00000000	          3.23269276	          0.00000000	          0.00000000	          0.00000000	          0.00000000	
          0.52400000	         52.48717180	        554.99752198	        -31.89134143	         -0.75860401	          0.00000000	          0.00360340	          0.00000000	          0.00000000	          0.00000000	          0.00000000	          0.00000000	          0.00000000	          0.00000000	          3.20663266	          0.00000000	          0.00000000	          0.00000000	          0.00000000	
          0.52800000	         54.82383658	        566.11428766	        -35.06166033	         -0.75654892	          0.00000000	          0.00389861	          0.00000000	          0.00000000	          0.00000000	          0.00000000	          0.00000000	          0.00000000	          0.00000000	          3.15555716	          0.00000000	          0.00000000	          0.00000000	          0.00000000	
          0.53200000	         57.12626232	        577.43484169	        -38.03146380	         -0.75440279	          0.00000000	          0.00413866	          0.00000000	          0.00000000	          0.00000000	          0.00000000	          0.00000000	          0.00000000	          0.00000000	          3.09872152	          0.00000000	          0.00000000	          0.00000000	          0.00000000	
          0.53600000	         59.13309955	        588.82742415	        -40.52066284	         -0.75216206	          0.00000000	          0.00430131	          0.00000000	          0.00000000	          0.00000000	          0.00000000	          0.00000000	          0.00000000	          0.00000000	          3.05626654	          0.00000000	          0.00000000	          0.00000000	          0.00000000	
          0.54000000	         60.62592694	        599.97994141	        -42.33394922	         -0.74975146	          0.00000000	          0.00437630	          0.00000000	          0.00000000	          0.00000000	          0.00000000	          0.00000000	          0.00000000	          0.00000000	          3.04531687	          0.00000000	          0.00000000	          0.00000000	          0.00000000	
          0.54400000	         61.48415320	        610.55448406	        -43.37859943	         -0.74705721	          0.00000000	          0.00436638	          0.00000000	          0.00000000	          0.00000000	          0.00000000	          0.00000000	          0.00000000	          0.00000000	          3.07688403	          0.00000000	          0.00000000	          0.00000000	          0.00000000	
          0.54800000	         61.73647855	        620.44052201	        -43.65252843	         -0.74405869	          0.00000000	          0.00427825	          0.00000000	          0.00000000	          0.00000000	          0.00000000	          0.00000000	          0.00000000	          0.00000000	          3.15409181	          0.00000000	          0.00000000	          0.00000000	          0.00000000	
          0.55200000	         61.58675904	        629.81794184	        -43.24137041	         -0.74088509	          0.00000000	          0.00411301	          0.00000000	          0.00000000	          0.00000000	          0.00000000	          0.00000000	          0.00000000	          0.00000000	          3.27180467	          0.00000000	          0.00000000	          0.00000000	          0.00000000	
          0.55600000	         61.35458328	        638.96385548	        -42.31930332	         -0.73772434	          0.00000000	          0.00387309	          0.00000000	          0.00000000	          0.00000000	          0.00000000	          0.00000000	          0.00000000	          0.00000000	          3.41758674	          0.00000000	          0.00000000	          0.00000000	          0.00000000	
          0.56000000	         61.36544512	        648.01157019	        -41.11350788	         -0.73468086	          0.00000000	          0.00357157	          0.00000000	          0.00000000	          0.00000000	          0.00000000	          0.00000000	          0.00000000	          0.00000000	          3.57395386	          0.00000000	          0.00000000	          0.00000000	          0.00000000	
          0.56400000	         61.88147178	        656.89750824	        -39.84181226	         -0.73173932	          0.00000000	          0.00322815	          0.00000000	          0.00000000	          0.00000000	          0.00000000	          0.00000000	          0.00000000	          0.00000000	          3.72168527	          0.00000000	          0.00000000	          0.00000000	          0.00000000	
          0.56800000	         63.08973259	        665.54854823	        -38.67230648	         -0.72886464	          0.00000000	          0.00286134	          0.00000000	          0.00000000	          0.00000000	          0.00000000	          0.00000000	          0.00000000	          0.00000000	          3.84351147	          0.00000000	          0.00000000	          0.00000000	          0.00000000	
          0.57200000	         65.10145173	        674.11268703	        -37.71414014	         -0.72610734	          0.00000000	          0.00248388	          0.00000000	          0.00000000	          0.00000000	          0.00000000	          0.00000000	          0.00000000	          0.00000000	          3.92726522	          0.00000000	          0.00000000	          0.00000000	          0.00000000	
          0.57600000	         67.94331738	        682.94477079	        -37.01856494	         -0.72360380	          0.00000000	          0.00210388	          0.00000000	          0.00000000	          0.00000000	          0.00000000	          0.00000000	          0.00000000	          0.00000000	          3.96785475	          0.00000000	          0.00000000	          0.00000000	          0.00000000	
          0.58000000	         71.56111420	        692.32205217	        -36.58319433	         -0.72145930	          0.00000000	          0.00172698	          0.00000000	          0.00000000	          0.00000000	          0.00000000	          0.00000000	          0.00000000	          0.00000000	          3.96794945	          0.00000000	          0.00000000	          0.00000000	          0.00000000	
          0.58400000	         75.84925732	        702.21488126	        -36.35298663	         -0.71965311	          0.00000000	          0.00135542	          0.00000000	          0.00000000	          0.00000000	          0.00000000	          0.00000000	          0.00000000	          0.00000000	          3.93760721	          0.00000000	          0.00000000	          0.00000000	          0.00000000	
          0.58800000	         80.70214908	        712.37414784	        -36.21071495	         -0.71808475	          0.00000000	          0.00097992	          0.00000000	          0.00000000	          0.00000000	          0.00000000	          0.00000000	          0.00000000	          0.00000000	          3.89301568	          0.00000000	          0.00000000	          0.00000000	          0.00000000	
